<?xml version="1.0" encoding="utf-8"?>
<!-- Generator: Adobe Illustrator 25.0.1, SVG Export Plug-In . SVG Version: 6.00 Build 0)  -->
<svg version="1.1" id="Layer_1" xmlns="http://www.w3.org/2000/svg" xmlns:xlink="http://www.w3.org/1999/xlink" x="0px" y="0px"
	 viewBox="0 0 50 50" style="enable-background:new 0 0 50 50;" xml:space="preserve">
<style type="text/css">
	.st0{fill:#047A9B;}
	.st1{fill:none;stroke:#FFFFFF;stroke-width:1.5014;stroke-linecap:round;stroke-miterlimit:10;}
	.st2{fill:#FFFFFF;}
	.st3{fill:none;stroke:#FFFFFF;stroke-width:1.8768;stroke-linecap:round;stroke-miterlimit:10;}
	.st4{fill:#FCFCFC;}
</style>
<circle class="st0" cx="25" cy="25" r="24"/>
<line class="st1" x1="18.9" y1="13.4" x2="10.1" y2="13.4"/>
<line class="st1" x1="20.2" y1="16.3" x2="11.7" y2="16.3"/>
<line class="st1" x1="21.1" y1="19.2" x2="13.2" y2="19.2"/>
<circle class="st1" cx="25.2" cy="12.8" r="1.9"/>
<circle class="st2" cx="9.7" cy="13.4" r="1.2"/>
<circle class="st2" cx="19" cy="13.4" r="1.2"/>
<circle class="st2" cx="10.8" cy="16.3" r="1.2"/>
<circle class="st2" cx="20.5" cy="16.3" r="1.2"/>
<circle class="st2" cx="13.2" cy="19.2" r="1.2"/>
<circle class="st2" cx="21.4" cy="19.2" r="1.2"/>
<line class="st1" x1="31.5" y1="13.5" x2="40.2" y2="13.5"/>
<line class="st1" x1="30.1" y1="16.4" x2="38.6" y2="16.4"/>
<line class="st1" x1="29.2" y1="19.2" x2="37.1" y2="19.2"/>
<circle class="st2" cx="40.2" cy="13.4" r="1.2"/>
<circle class="st2" cx="31.3" cy="13.5" r="1.2"/>
<circle class="st2" cx="38.9" cy="16.4" r="1.2"/>
<circle class="st2" cx="29.7" cy="16.4" r="1.2"/>
<circle class="st2" cx="37.1" cy="19.2" r="1.2"/>
<circle class="st2" cx="28.9" cy="19.3" r="1.2"/>
<line class="st3" x1="25.1" y1="15.2" x2="25.2" y2="39.6"/>
<circle class="st2" cx="25.2" cy="39.9" r="1.4"/>
<path class="st2" d="M22.6,37.9c-0.1,0.2-0.7,1.4-0.8,1.3s0.1-1.4,0.2-1.6s0.3-0.3,0.5-0.2C22.6,37.5,22.7,37.7,22.6,37.9z"/>
<path class="st2" d="M27.8,38c0.1,0.2,0.7,1.4,0.8,1.3s-0.1-1.4-0.2-1.6s-0.3-0.3-0.5-0.2S27.7,37.8,27.8,38z"/>
<path class="st4" d="M24.8,26.9c-0.1,0-0.2,0-0.3,0l0,0c0,0.2,0,0.5-0.1,0.9c-1.6-0.5-3.1-1-4.5-1.5c-0.6-0.2-1.1-0.8-0.8-1.7
	c1.1,0.5,2.2,0.8,3.4,0.3c0.5-0.2,1-0.7,1.1-1.2c0.2-0.7-0.4-1.2-1-1.5c-1.4-0.6-2.8-0.7-4.2,0.1c-2.1,1.1-2.4,4-0.4,5.5
	c0.7,0.5,1.5,0.8,2.4,1.2c0.2,0.1,0.5,0.2,0.9,0.3c-3.1,2.6-1.7,5.5,1.9,6.7c-0.4,0.5-0.8,0.9-1.1,1.4c-0.2,0.5-0.2,1-0.3,1.6
	c0.1,0,0.2,0.1,0.3,0.1c0.5-1,1-2,2.4-2c0,0.5,0.1,1,0.1,1.4s0.2,0.6,0.4,0.8C24.9,35,24.8,31,24.8,26.9z M21.5,22.6
	c0.3,0,0.5,0.2,0.5,0.5s-0.2,0.5-0.5,0.5S21,23.4,21,23.1S21.3,22.6,21.5,22.6z M24.5,34.6c-1.2-0.3-2.1-0.7-2.8-1.5
	c-0.5-0.6-0.5-1.4,0.2-1.8c0.6-0.4,1.3-0.6,2-0.8c0.1,0,0.5,0.2,0.5,0.3C24.5,32,24.5,33.3,24.5,34.6z"/>
<path class="st4" d="M31.9,22.3c-1.4-0.7-2.8-0.7-4.2-0.1c-0.6,0.3-1.2,0.9-1,1.5c0.1,0.5,0.7,0.9,1.1,1.2c1.1,0.5,2.2,0.3,3.4-0.3
	c0.3,0.9-0.2,1.4-0.8,1.7c-1.4,0.5-2.9,1-4.5,1.5c0-0.4-0.1-0.7-0.1-0.9l0,0c-0.1,0-0.2,0-0.3,0c0,4.1-0.1,8.2-0.1,12.2
	c0.2-0.2,0.4-0.4,0.4-0.8c0-0.5,0-0.9,0.1-1.4c1.4,0,1.9,1.1,2.4,2c0.1,0,0.2-0.1,0.3-0.1c-0.1-0.5-0.1-1.1-0.3-1.6
	c-0.2-0.5-0.7-0.9-1.1-1.4c3.6-1.2,5-4,1.9-6.7c0.3-0.1,0.6-0.2,0.9-0.3c0.8-0.4,1.7-0.7,2.4-1.2C34.3,26.2,34.1,23.4,31.9,22.3z
	 M28.7,23.7c-0.3,0-0.5-0.2-0.5-0.5s0.2-0.5,0.5-0.5s0.5,0.2,0.5,0.5S29,23.7,28.7,23.7z M28.7,33.1C28,34,27,34.3,25.9,34.6
	c0-1.4,0-2.6,0-3.8c0-0.1,0.4-0.3,0.5-0.3c0.7,0.2,1.4,0.4,2,0.8C29.1,31.8,29.2,32.5,28.7,33.1z"/>
</svg>
