<svg width="424" height="616" viewBox="0 0 424 616" fill="none" xmlns="http://www.w3.org/2000/svg">
<path d="M5.89471 0.965783C5.89471 1.63245 13.7614 21.6325 23.3614 45.6325C39.628 86.5658 40.9614 89.0991 43.3614 87.6325C44.6947 86.8325 45.8947 85.6325 45.8947 85.0991C45.8947 82.8325 12.1614 4.56578 10.2947 2.43245C8.02805 -0.100883 5.89471 -0.76755 5.89471 0.965783Z" fill="#75F0C3"/>
<path d="M260.961 47.4992L237.895 86.0325L240.961 88.2992C242.561 89.4992 244.295 90.1658 244.828 89.6325C245.228 89.0992 254.428 72.4325 265.228 52.4325C279.361 26.1658 284.695 15.2325 284.295 12.5658C284.028 9.63248 279.628 16.2992 260.961 47.4992Z" fill="#75F0C3"/>
<path d="M35.0947 24.0325C44.2947 47.4992 58.1614 77.8992 59.3614 77.6325C62.2947 76.8325 84.5614 63.3659 84.5614 62.2992C84.5614 61.7659 74.1614 53.2325 61.628 43.0992C48.9614 33.0992 37.4947 24.0325 36.1614 22.8325C33.8947 20.9659 33.8947 21.0992 35.0947 24.0325Z" fill="#75F0C3"/>
<path d="M232.561 45.3657C219.895 54.8324 208.828 63.2324 208.295 63.7657C207.761 64.299 211.628 67.899 217.095 71.6324L227.095 78.4324L241.361 54.1657C258.295 25.3657 256.828 28.0324 256.295 28.0324C256.028 28.0324 245.361 35.7657 232.561 45.3657Z" fill="#75F0C3"/>
<path d="M7.49472 71.3658C7.49472 87.4992 7.89472 102.299 8.42806 104.299L9.22806 107.899L18.9614 102.299C26.8281 97.7658 28.4281 96.1658 27.8947 94.0325C27.6281 92.5658 22.8281 80.2992 17.3614 66.6992L7.36139 42.0325L7.49472 71.3658Z" fill="#75F0C3"/>
<path d="M275.628 61.0992C270.961 69.6326 264.561 81.4992 261.361 87.4992L255.361 98.2992L269.361 108.033C277.095 113.233 283.628 117.366 284.028 116.966C284.295 116.699 284.428 100.433 284.295 80.9659L283.895 45.4992L275.628 61.0992Z" fill="#75F0C3"/>
<path d="M53.8947 96.699C30.028 110.966 10.428 123.099 10.1614 123.899C9.49469 125.899 26.1614 152.032 29.7614 154.566C34.428 157.766 135.361 215.632 138.295 216.699C140.428 217.632 140.561 213.632 140.561 144.166V70.699H118.961L97.228 70.8324L53.8947 96.699Z" fill="#75F0C3"/>
<path d="M153.895 144.699C153.895 185.366 154.295 218.699 154.961 218.699C155.495 218.832 178.028 209.366 205.095 197.766L254.295 176.699L268.161 155.766C275.628 144.166 281.895 134.299 281.895 133.766C281.895 133.232 261.761 118.699 237.228 101.632L192.561 70.699H173.228H153.895V144.699Z" fill="#75F0C3"/>
<path d="M4.42803 142.699C3.62803 147.232 -0.371968 210.299 0.0280321 210.966C0.561365 211.766 88.6947 286.432 95.7614 292.032C97.228 293.099 95.3614 289.232 91.628 283.366C86.428 275.099 19.8947 166.966 6.96136 146.032C5.62803 143.766 4.56136 142.299 4.42803 142.699Z" fill="#75F0C3"/>
<path d="M241.895 220.432C216.561 259.232 194.428 293.499 192.561 296.566L189.361 302.032L194.695 297.366C197.495 294.832 222.161 273.099 249.361 248.966L298.695 205.366L293.761 177.899C291.095 162.832 288.561 150.299 288.428 150.166C288.161 149.899 267.228 181.499 241.895 220.432Z" fill="#75F0C3"/>
<path d="M44.4281 180.966C52.4281 195.899 122.428 307.366 123.761 307.232C124.695 307.099 130.028 303.632 135.628 299.499C141.495 295.099 147.095 292.032 149.095 292.032C151.095 292.032 155.495 294.699 160.828 299.232C167.228 304.832 169.628 306.166 170.695 304.966C173.361 302.166 240.561 198.299 240.028 197.766C239.761 197.499 219.361 206.032 194.561 216.699C169.761 227.366 148.428 236.032 146.961 236.032C145.495 236.032 121.895 223.099 94.4281 207.366C67.0947 191.632 44.2947 178.699 43.8947 178.699C43.4947 178.699 43.7614 179.766 44.4281 180.966Z" fill="#75F0C3"/>
<path d="M203.895 306.832C171.361 335.766 156.961 349.366 156.428 351.766C155.495 355.366 153.628 479.499 154.428 478.566C155.628 477.366 251.495 265.366 250.961 265.366C250.695 265.499 229.628 284.166 203.895 306.832Z" fill="#75F0C3"/>
<path d="M54.5614 285.632C58.5614 294.699 79.3614 342.032 100.961 391.099L140.161 480.032L141.095 448.432C141.495 430.966 142.028 401.499 142.028 382.832L142.295 349.099L95.8947 309.899C70.2947 288.299 48.9614 270.299 48.428 269.899C47.8947 269.632 50.5614 276.699 54.5614 285.632Z" fill="#75F0C3"/>
<path d="M261.228 276.166C254.028 291.099 162.161 494.032 162.561 494.432C162.695 494.566 206.828 468.966 260.695 437.366C352.961 383.232 359.095 379.366 366.961 370.966C371.495 366.032 375.895 360.966 376.561 359.766C377.628 357.899 369.228 350.832 323.495 315.232C293.628 292.032 268.161 272.032 266.961 270.966C264.828 269.232 264.428 269.766 261.228 276.166Z" fill="#75F0C3"/>
<path d="M139.895 312.832C135.495 316.166 131.361 319.366 130.828 319.899C130.161 320.566 134.028 324.699 139.361 329.099C150.161 338.299 148.828 338.299 160.028 328.166L166.428 322.166L157.895 314.432C153.095 310.166 148.961 306.699 148.561 306.699C148.161 306.699 144.295 309.499 139.895 312.832Z" fill="#75F0C3"/>
<path d="M278.828 492.832C220.428 560.166 172.961 615.499 173.228 615.766C173.628 616.166 214.695 610.166 264.561 602.566L355.228 588.832L389.228 541.899L423.228 494.966L404.561 433.766C394.295 400.166 385.628 372.166 385.495 371.499C385.361 370.966 337.361 425.499 278.828 492.832Z" fill="#75F0C3"/>
<path d="M243.228 462.832C195.895 490.699 156.428 514.032 155.495 514.566C154.028 515.366 154.295 524.032 156.828 561.766C158.428 587.232 160.295 607.899 160.828 607.766C161.361 607.499 192.828 571.632 230.695 528.032C268.561 484.432 306.695 440.432 315.495 430.299C324.295 420.299 330.961 412.032 330.295 412.032C329.761 412.166 290.561 434.966 243.228 462.832Z" fill="#75F0C3"/>
<path d="M104.295 549.099C85.3614 562.032 70.028 572.966 69.8947 573.366C69.8947 574.032 146.428 614.699 146.695 614.299C146.961 614.032 140.961 526.299 140.695 525.632C140.161 524.566 135.228 527.766 104.295 549.099Z" fill="#75F0C3"/>
</svg>
