<svg width="706" height="706" viewBox="0 0 706 706" fill="none" xmlns="http://www.w3.org/2000/svg">
<path d="M512.4 239.333C499.2 243.333 488.667 252.4 481.733 265.6L478 272.667L477.6 257.6L477.2 242.667H469.333H461.333V269.333V296H432H402.667V269.467V242.933L398.667 242.133C396.533 241.733 392.933 241.733 390.667 242.133L386.667 242.933V306.133V369.333H394.667H402.667V340V310.667H432H461.333V339.867V369.067L465.333 370C467.6 370.533 471.067 370.533 473.333 370L477.2 369.2L477.6 351.6L478 334L481.067 340.133C485.867 350 492.667 356.8 502.4 361.6L511.333 366H577.333H643.333V359.333V352.667L621.333 352L599.333 351.333L598.933 302.267L598.667 253.333H620.533C644.533 253.333 644 253.467 644 244.8C644 242.4 643.333 239.867 642.4 238.933C640 236.533 520.133 236.8 512.4 239.333ZM544.667 254.267C547.467 255.2 552.8 258 556.4 260.267C563.6 264.8 565.333 264.267 565.333 256.933C565.333 253.333 565.333 253.333 574.667 253.333H584V302.667V352.133L575.067 351.733L566 351.333L565.6 346.667C565.333 344.133 564.667 341.467 564.133 340.933C563.6 340.4 559.6 342 555.2 344.667C544.933 350.933 538.8 352.4 526.667 351.733C515.6 351.067 510.533 348.933 503.867 342.4C487.467 325.867 487.067 282 503.333 263.067C512.933 251.867 528.267 248.533 544.667 254.267Z" fill="#183C6D"/>
<path d="M232.4 241.867C217.333 244.8 205.333 252.667 197.2 265.333L195.067 268.533L188.533 262.133C180.4 253.867 166.267 247.067 152.4 244.667C141.733 242.667 77.2 241.733 72.6666 243.467C66.6666 245.867 66.6666 245.467 66.6666 358.533V465.067L70.8 466.533C76.1333 468.4 88 468.4 92.5333 466.667L96 465.333V416.533V367.733L113.733 368.267C129.733 368.8 132 369.067 139.067 372.533C146.667 376.4 152.667 382.8 158 393.2C159.2 395.733 166.133 412.8 173.333 431.2C183.6 457.2 187.2 465.067 189.6 466.267C193.333 468.267 209.067 468.533 214 466.667C217.2 465.467 217.467 464.8 216.8 460.667C215.6 454.8 189.067 389.333 184.4 381.333C180.667 374.8 167.867 361.867 163.867 360.667C159.867 359.333 160.8 358.267 170.133 354.133C174.933 351.867 181.867 347.6 185.467 344.4L191.867 338.533L194.667 344.4C201.467 358.8 214.8 368 232.933 370.667C256.533 374.267 281.333 364.8 290.4 348.533C291.6 346.4 292.4 346.933 298.667 353.733C310.533 366.8 327.733 372.4 346.933 369.333C357.6 367.733 368.8 363.2 373.2 358.8C376.267 355.733 377.2 346.267 374.533 344.667C373.867 344.133 368 346.4 361.733 349.467C351.333 354.8 349.6 355.333 340.133 355.333C332.267 355.333 328.533 354.533 323.733 352.133C310.533 345.867 303.067 331.867 301.733 311.867C300.4 291.467 304.8 275.6 314.667 264.8C321.333 257.6 329.067 254.667 341.2 254.667C350 254.667 358.8 257.867 369.6 264.933C371.6 266.133 373.6 266.8 374 266.4C374.533 265.867 374.933 262.667 374.933 259.067C374.933 253.6 374.267 252.133 370.8 249.333C363.467 243.2 354.133 240.667 338.667 240.667C325.467 240.667 324 240.933 315.733 245.067C309.6 248 304.667 251.867 300 257.067L293.2 264.667L290 260.667C288.267 258.4 286.8 256.267 286.667 255.867C286.667 255.333 283.467 252.8 279.733 250.267C267.333 241.867 249.333 238.667 232.4 241.867ZM256 256C271.6 260.267 280.267 272.533 282.933 294.4C286.8 324.933 276.267 349.6 256.8 355.333C235.733 361.6 216.8 353.067 209.2 334C206.533 326.933 206.133 323.867 206.133 306.667C206.133 283.2 208.533 275.333 218.667 265.2C227.867 256 242.8 252.267 256 256ZM146.933 269.2C155.6 271.867 164.267 278.8 168 286C170.8 291.6 171.333 294.4 171.333 304.667C171.333 319.733 168.133 327.333 158.8 334C148.533 341.467 140.8 343.2 117.333 343.333H96.6666L96.2666 306.667C96.1333 286.533 96.2666 269.2 96.6666 268.133C97.2 266.667 101.333 266.4 119.733 267.067C132 267.467 144.267 268.4 146.933 269.2Z" fill="#183C6D"/>
<path d="M116 281.333C114.4 282.933 113.333 285.733 113.333 288.667C113.333 294.667 117.2 298.667 123.067 298.667C128.8 298.667 132.533 294.667 132.533 288.667C132.533 286.133 131.467 282.933 130 281.333C126.8 277.867 119.6 277.733 116 281.333ZM125.867 284.8C127.067 285.867 128 287.733 128 288.667C128 290.533 124.533 294.667 123.067 294.667C121.6 294.667 117.333 290.267 117.333 288.933C117.333 287.2 121.333 282.667 122.8 282.667C123.333 282.667 124.8 283.6 125.867 284.8Z" fill="#183C6D"/>
<path d="M119.333 312.267C115.2 314.4 113.333 317.467 113.333 321.6C113.333 326.4 118.667 332 123.333 332C128 332 133.333 326.4 133.333 321.733C133.2 317.467 131.333 314.4 127.067 312.267C123.6 310.4 122.8 310.4 119.333 312.267ZM126.667 317.867C127.467 318.933 128 321.2 127.733 322.933C127.467 325.333 126.533 326 123.333 326C120.133 326 119.2 325.333 118.933 322.933C118.4 319.6 120.667 316 123.333 316C124.267 316 125.733 316.933 126.667 317.867Z" fill="#183C6D"/>
<path d="M415.467 264.8C412.933 267.333 412.533 281.333 414.933 283.733C415.867 284.667 420.133 285.333 424.667 285.333C429.2 285.333 433.467 284.667 434.4 283.733C435.333 282.8 436 278.533 436 273.733C436 266.933 435.6 265.2 433.467 264C429.333 261.867 417.867 262.4 415.467 264.8ZM430.667 274V280H424.667H418.667V274.933C418.667 272.133 419.067 269.333 419.6 268.933C420 268.4 422.8 268 425.6 268H430.667V274Z" fill="#183C6D"/>
<path d="M415.2 323.067C414.8 324.133 414.667 328.8 414.933 333.467L415.333 342H425.333H435.333V332V322L425.6 321.6C418.267 321.333 415.733 321.733 415.2 323.067ZM430.667 331.333V337.333H425.333H420V331.333V325.333H425.333H430.667V331.333Z" fill="#183C6D"/>
<path d="M243 253C298.735 253 299.265 360.999 243 361C186.735 361.001 187.265 253 243 253Z" fill="#F4D146" stroke="#183C6D"/>
<circle cx="123.5" cy="321.5" r="5.5" fill="#F3D046"/>
<ellipse cx="122.5" cy="288.5" rx="5.5" ry="6.5" fill="#F3D046"/>
<path d="M418 268H431V281H418V268Z" fill="#F4D046"/>
<path d="M419 325.5H432V338.5H419V325.5Z" fill="#F4D046"/>
</svg>
